<?xml version="1.0" standalone="no"?>
<!DOCTYPE svg PUBLIC "-//W3C//DTD SVG 20010904//EN"
 "http://www.w3.org/TR/2001/REC-SVG-20010904/DTD/svg10.dtd">
<svg version="1.0" xmlns="http://www.w3.org/2000/svg"
 width="1716.000000pt" height="1132.000000pt" viewBox="0 0 1716.000000 1132.000000"
 preserveAspectRatio="xMidYMid meet">

<g transform="translate(0.000000,1132.000000) scale(0.100000,-0.100000)"
fill="#000000" stroke="none">
<path d="M260 11307 c-101 -28 -188 -120 -210 -222 -7 -35 -10 -1691 -8 -5430
l3 -5380 24 -49 c31 -63 84 -116 147 -147 l49 -24 8310 0 8310 0 50 25 c63 31
114 82 145 145 l25 50 0 5400 c0 5299 0 5401 -19 5450 -25 65 -94 137 -159
166 l-52 24 -8285 2 c-6482 1 -8295 -1 -8330 -10z m8654 -2479 c61 -15 140
-101 162 -173 19 -69 14 -139 -15 -198 -16 -32 -18 -45 -9 -61 6 -12 83 -147
171 -301 179 -313 189 -342 127 -357 -49 -12 -167 0 -215 21 -62 27 -95 68
-159 192 -59 117 -178 321 -203 350 -8 9 -27 19 -42 22 -44 9 -111 67 -143
123 -91 162 2 359 185 393 43 8 74 6 141 -11z m-556 -262 c36 -19 30 -9 362
-561 154 -255 280 -473 280 -485 0 -29 -40 -42 -135 -44 -69 -1 -88 3 -137 27
-70 34 -98 69 -187 230 -94 169 -297 496 -327 527 l-25 25 -359 -3 c-197 -2
-369 -1 -381 3 -30 10 -21 48 37 159 66 126 53 122 439 134 346 11 391 10 433
-12z m1185 10 c51 -22 77 -57 207 -286 68 -118 143 -249 167 -290 73 -124 85
-92 -247 -665 -156 -269 -290 -498 -298 -507 -23 -28 -48 -21 -81 21 -77 97
-101 210 -64 303 9 24 53 102 98 173 137 217 305 527 305 561 0 19 -29 81 -83
175 -46 79 -125 216 -176 304 -62 108 -91 168 -89 185 3 24 6 25 93 31 50 3
100 6 113 7 12 1 37 -4 55 -12z m-2217 -443 c32 -11 65 -33 97 -66 l49 -50
331 5 c183 3 343 2 357 -2 17 -4 26 -14 28 -32 4 -35 -39 -119 -89 -173 -66
-71 -88 -76 -381 -78 l-255 -2 -46 -42 c-59 -54 -107 -74 -182 -76 -80 -2
-129 17 -187 70 -214 201 -2 541 278 446z m2940 -348 c195 -58 249 -325 93
-458 -44 -38 -118 -67 -173 -67 -30 -1 -37 -11 -211 -312 -99 -171 -190 -318
-202 -326 -20 -13 -24 -12 -48 14 -43 46 -88 150 -93 213 -5 69 8 104 87 226
32 49 91 149 132 220 l73 130 -3 81 c-4 120 35 197 125 250 77 45 139 53 220
29z m-2042 -221 c59 -23 -47 -214 -148 -267 -39 -21 -58 -22 -454 -28 -285 -5
-422 -11 -442 -19 -35 -14 -51 -40 -205 -320 -159 -289 -191 -339 -218 -340
-4 0 -37 45 -73 100 -95 145 -93 162 44 395 32 55 94 165 136 245 85 158 122
205 170 216 26 6 408 14 1048 22 69 1 133 -1 142 -4z m2226 -502 c123 -181
123 -196 7 -388 -36 -60 -106 -183 -157 -274 -102 -184 -127 -216 -181 -230
-23 -6 -257 -9 -620 -8 l-584 3 -3 23 c-4 28 45 135 82 179 15 18 52 44 84 60
l57 28 410 0 c363 0 413 2 440 17 23 12 53 56 114 165 231 407 282 488 305
480 6 -2 27 -27 46 -55z m-3006 6 c71 -94 101 -207 76 -284 -7 -22 -39 -79
-70 -129 -32 -49 -91 -153 -133 -230 l-76 -140 16 -63 c13 -52 14 -72 4 -117
-28 -127 -138 -215 -267 -215 -186 0 -319 208 -240 375 39 85 102 136 193 155
l48 11 175 311 c96 171 183 322 193 335 25 32 52 29 81 -9z m421 -190 c77 -89
105 -194 77 -294 -7 -22 -44 -91 -82 -154 -68 -110 -234 -404 -293 -522 -22
-42 -27 -64 -22 -86 3 -17 74 -145 157 -284 184 -309 209 -355 201 -374 -7
-18 -26 -22 -143 -27 -145 -8 -168 8 -265 178 -32 55 -108 183 -169 284 -102
171 -111 189 -111 235 0 48 15 77 239 476 314 559 344 610 361 610 7 0 30 -19
50 -42z m561 -646 c59 -30 106 -90 172 -215 93 -178 315 -539 344 -560 27 -20
40 -21 385 -18 303 2 361 0 378 -13 20 -14 19 -17 -36 -123 -82 -159 -55 -151
-499 -155 -417 -3 -394 -8 -463 104 -150 243 -557 950 -557 967 0 29 48 41
150 37 63 -2 96 -8 126 -24z m1644 -163 c94 -42 149 -122 158 -226 6 -77 -15
-138 -67 -196 -109 -121 -315 -115 -406 10 l-30 42 -362 0 c-220 1 -372 5
-389 11 -23 9 -26 14 -20 41 8 40 66 136 103 170 66 62 71 63 388 64 l290 0
52 40 c29 22 67 45 85 52 53 19 147 15 198 -8z m-2024 -107 c55 -28 91 -71
143 -172 24 -47 82 -148 128 -225 81 -135 86 -141 131 -158 64 -22 112 -64
147 -128 58 -104 34 -244 -54 -321 -114 -100 -288 -90 -384 22 -69 81 -86 205
-39 295 l19 39 -68 115 c-37 64 -117 201 -178 305 -61 104 -111 200 -111 212
0 37 27 45 130 41 71 -3 105 -9 136 -25z m-4009 -1688 c126 -26 211 -79 275
-171 34 -51 40 -41 -70 -114 l-62 -42 -42 48 c-143 162 -399 111 -463 -91 -34
-109 -2 -230 80 -302 112 -99 290 -84 392 32 l40 45 76 -52 c42 -29 76 -57 77
-64 0 -20 -110 -132 -157 -160 -184 -108 -443 -74 -594 77 -91 90 -139 208
-139 340 0 258 205 457 483 469 15 0 62 -6 104 -15z m1005 -14 c296 -92 417
-461 238 -721 -45 -66 -140 -140 -217 -169 -70 -27 -196 -36 -276 -21 -131 24
-268 123 -329 237 -94 175 -68 395 64 539 133 146 325 196 520 135z m7699 -6
c25 -12 62 -36 84 -55 44 -39 95 -139 95 -186 l0 -33 -100 0 c-87 0 -101 2
-106 18 -30 91 -58 112 -154 112 -63 0 -101 -14 -122 -44 -16 -23 -8 -73 15
-93 34 -32 54 -40 187 -73 178 -45 239 -80 282 -165 29 -55 29 -154 1 -216
-56 -124 -195 -188 -383 -176 -118 8 -173 30 -242 98 -43 43 -60 68 -72 109
-28 93 -31 90 89 90 93 0 105 -2 105 -17 0 -32 40 -84 75 -99 48 -20 142 -18
185 4 64 32 73 100 17 136 -13 9 -77 29 -142 46 -252 64 -328 132 -329 294 0
60 4 79 29 125 17 30 48 68 70 84 76 56 121 67 260 64 86 -2 120 -7 156 -23z
m-6884 -265 l178 -281 3 281 2 281 100 0 100 0 0 -455 0 -455 -112 0 -113 0
-174 276 c-96 151 -179 277 -183 280 -4 3 -8 -121 -8 -275 l0 -281 -100 0
-100 0 0 455 0 455 114 0 115 0 178 -281z m1211 184 l3 -93 -136 0 -135 0 0
-360 0 -360 -105 0 -105 0 -2 358 -3 357 -132 3 -133 3 0 94 0 95 373 -2 372
-3 3 -92z m740 0 l3 -93 -231 0 -230 0 0 -85 0 -85 210 0 210 0 0 -90 0 -90
-210 0 -210 0 0 -90 0 -90 228 -2 227 -3 3 -92 3 -93 -336 0 -335 0 0 455 0
455 333 -2 332 -3 3 -92z m491 -186 l176 -278 3 281 2 281 103 -3 102 -3 0
-400 c0 -220 -2 -424 -3 -452 l-4 -53 -111 0 -112 0 -175 277 -175 277 -3
-277 -2 -277 -105 0 -105 0 0 455 0 456 117 -3 117 -3 175 -278z m1211 188 l0
-95 -135 0 -135 0 0 -360 0 -360 -105 0 -105 0 -2 358 -3 357 -132 3 -133 3 0
94 0 95 375 0 375 0 0 -95z m861 69 c99 -46 159 -127 180 -240 27 -148 -45
-295 -179 -361 -52 -26 -68 -28 -189 -31 l-133 -4 0 -124 0 -124 -105 0 -105
0 0 456 0 456 243 -4 c222 -3 246 -5 288 -24z m479 -272 c0 -289 1 -299 23
-342 35 -69 64 -85 157 -85 88 0 119 15 155 76 19 32 20 55 23 342 l3 307 105
0 104 0 0 -313 c0 -343 -4 -372 -59 -459 -65 -102 -176 -153 -331 -153 -176 1
-283 59 -350 189 l-35 69 -3 333 -3 334 105 0 106 0 0 -298z m880 -62 l0 -360
213 -2 212 -3 3 -92 3 -93 -321 0 -320 0 0 448 c0 247 3 452 7 455 3 4 51 7
105 7 l98 0 0 -360z m1960 265 l0 -95 -230 0 -230 0 0 -85 0 -85 215 0 215 0
0 -90 0 -90 -215 0 -215 0 0 -90 0 -90 230 0 230 0 0 -95 0 -95 -335 0 -335 0
0 448 c0 247 3 452 7 455 3 4 154 7 335 7 l328 0 0 -95z m-8690 -1320 c0 -188
-1 -195 -20 -195 -19 0 -20 7 -20 195 0 188 1 195 20 195 19 0 20 -7 20 -195z
m704 181 c39 -16 48 -27 37 -44 -6 -10 -16 -9 -44 3 -83 35 -171 4 -208 -73
-38 -78 -13 -163 60 -206 41 -24 122 -24 157 -1 22 14 28 15 35 4 13 -21 11
-25 -18 -39 -145 -68 -292 19 -293 173 0 81 40 145 113 181 40 19 117 21 161
2z m472 -5 c65 -29 114 -110 114 -185 -1 -45 -32 -107 -73 -143 -58 -51 -155
-62 -223 -25 -54 29 -104 114 -104 177 0 141 154 236 286 176z m542 -121 c2
132 4 140 22 140 19 0 20 -8 20 -197 l0 -198 -47 50 c-83 89 -215 225 -219
225 -2 0 -4 -61 -4 -135 0 -128 -1 -135 -20 -135 -19 0 -20 7 -20 195 l0 195
133 -140 132 -141 3 141z m452 120 c0 -18 -7 -20 -55 -20 l-55 0 0 -175 c0
-168 -1 -175 -20 -175 -19 0 -20 8 -22 173 l-3 172 -57 3 c-50 3 -58 6 -58 22
0 19 8 20 135 20 128 0 135 -1 135 -20z m370 0 c0 -19 -7 -20 -90 -20 l-90 0
0 -55 0 -55 60 0 c53 0 60 -2 60 -20 0 -18 -7 -20 -60 -20 l-60 0 0 -80 0 -80
95 0 c88 0 95 -1 95 -20 0 -19 -7 -20 -115 -20 l-115 0 0 195 0 195 110 0
c103 0 110 -1 110 -20z m342 -167 l88 -92 0 139 0 140 25 0 25 0 0 -200 0
-199 -88 92 c-49 51 -108 113 -132 140 -23 26 -46 47 -51 47 -5 0 -9 -61 -9
-135 0 -128 -1 -135 -20 -135 -19 0 -20 7 -20 198 l0 197 47 -50 c26 -27 87
-91 135 -142z m548 167 c0 -16 -8 -19 -57 -22 l-58 -3 -3 -172 c-2 -165 -3
-173 -22 -173 -19 0 -20 7 -20 175 l0 175 -55 0 c-48 0 -55 2 -55 20 0 19 7
20 135 20 127 0 135 -1 135 -20z m677 0 c31 -14 41 -23 37 -34 -8 -20 -13 -20
-57 -1 -111 46 -217 -24 -217 -143 0 -96 56 -152 152 -152 84 0 88 4 88 76 l0
64 -35 0 c-28 0 -35 4 -35 20 0 18 7 20 60 20 l60 0 0 -93 0 -94 -40 -18 c-57
-26 -144 -24 -197 4 -108 55 -135 207 -55 303 55 65 157 86 239 48z m443 0 c0
-19 -7 -20 -90 -20 l-90 0 0 -55 0 -55 60 0 c53 0 60 -2 60 -20 0 -18 -7 -20
-60 -20 l-60 0 0 -80 0 -80 90 0 c50 0 90 -2 90 -4 0 -2 3 -11 6 -20 5 -14 -9
-16 -115 -16 l-121 0 0 195 0 195 115 0 c108 0 115 -1 115 -20z m388 -220 l41
-45 1 143 c0 135 1 142 20 142 19 0 20 -7 20 -197 l-1 -198 -36 40 c-20 22
-81 87 -135 144 l-98 104 0 -142 c0 -134 -1 -141 -20 -141 -19 0 -20 7 -20
196 l0 196 93 -99 c51 -54 112 -118 135 -143z m482 220 c0 -19 -7 -20 -90 -20
l-90 0 0 -55 0 -55 65 0 c58 0 65 -2 65 -20 0 -18 -7 -20 -65 -20 l-65 0 0
-80 0 -80 95 0 c88 0 95 -1 95 -20 0 -19 -7 -20 -115 -20 l-115 0 0 195 0 195
110 0 c103 0 110 -1 110 -20z m360 7 c75 -26 107 -142 58 -214 -13 -18 -31
-36 -40 -39 -25 -8 -23 -17 18 -74 l36 -50 -25 0 c-18 0 -35 14 -66 55 -40 52
-44 55 -86 55 l-45 0 0 -55 c0 -52 -1 -55 -25 -55 l-25 0 0 195 0 195 83 -1
c45 0 98 -5 117 -12z m459 -179 c45 -102 81 -189 81 -192 0 -3 -9 -6 -21 -6
-15 0 -25 11 -36 40 l-16 40 -92 0 -92 0 -16 -40 c-11 -29 -21 -40 -36 -40
-12 0 -21 3 -21 8 0 10 162 383 166 380 1 -2 39 -87 83 -190z m461 172 c0 -18
-7 -20 -55 -20 l-55 0 0 -175 0 -175 -25 0 -25 0 0 175 0 175 -55 0 c-48 0
-55 2 -55 20 0 19 7 20 135 20 128 0 135 -1 135 -20z m432 -10 c56 -38 82 -84
86 -155 8 -121 -72 -208 -193 -208 -129 0 -216 113 -191 248 9 45 59 103 111
127 55 26 141 20 187 -12z m439 20 c57 -16 82 -50 87 -120 4 -51 1 -65 -19
-95 -13 -19 -32 -38 -41 -41 -25 -8 -23 -20 10 -63 45 -57 46 -61 19 -61 -18
0 -36 15 -66 55 -40 52 -44 55 -86 55 l-45 0 0 -55 c0 -52 -1 -55 -25 -55
l-25 0 0 195 0 195 78 0 c42 0 93 -5 113 -10z m-7846 -157 c107 -249 99 -223
72 -223 -19 0 -28 9 -40 40 l-15 40 -91 0 -91 0 -16 -40 c-13 -31 -21 -40 -40
-40 -24 0 -24 1 -10 33 84 198 151 347 156 347 4 0 37 -71 75 -157z"/>
<path d="M8743 8700 c-81 -49 -91 -165 -18 -229 84 -74 203 -36 235 75 11 36
10 47 -8 87 -13 29 -33 54 -54 67 -43 26 -113 26 -155 0z"/>
<path d="M7180 8019 c-149 -62 -111 -279 50 -279 85 0 143 61 143 148 0 92
-109 167 -193 131z"/>
<path d="M10145 7669 c-40 -12 -58 -27 -84 -69 -43 -71 -17 -157 60 -198 47
-25 87 -24 141 4 33 17 68 81 68 125 0 93 -97 165 -185 138z"/>
<path d="M6925 6282 c-41 -26 -52 -41 -66 -93 -11 -41 -10 -50 10 -92 52 -108
202 -112 256 -7 19 38 19 103 0 141 -34 64 -135 90 -200 51z"/>
<path d="M9892 5950 c-73 -45 -97 -149 -46 -210 74 -87 193 -78 246 20 23 43
19 110 -9 149 -43 58 -131 77 -191 41z"/>
<path d="M8290 5281 c-36 -19 -80 -88 -80 -125 0 -40 43 -109 80 -128 96 -50
208 13 213 119 2 57 -18 95 -65 126 -50 32 -99 35 -148 8z"/>
<path d="M4781 4073 c-53 -19 -117 -82 -144 -143 -41 -90 -19 -238 46 -309 57
-61 159 -98 240 -86 57 9 139 55 171 98 82 108 72 289 -21 379 -76 74 -189 97
-292 61z"/>
<path d="M10050 3941 l0 -141 93 0 c143 0 202 41 200 140 -1 97 -47 129 -194
137 l-99 6 0 -142z"/>
<path d="M6020 2992 c-107 -53 -108 -213 -3 -275 102 -59 223 16 223 138 0 88
-65 155 -150 155 -19 0 -51 -8 -70 -18z"/>
<path d="M10630 2910 l0 -100 66 0 c59 0 68 3 95 29 31 31 37 68 19 116 -13
33 -64 55 -130 55 l-50 0 0 -100z"/>
<path d="M11117 2860 l-36 -80 74 0 74 0 -33 75 c-18 41 -35 77 -38 80 -2 3
-21 -31 -41 -75z"/>
<path d="M11954 2991 c-78 -47 -102 -129 -63 -208 29 -58 72 -85 134 -85 61 0
105 28 133 82 27 55 28 92 2 145 -37 75 -137 108 -206 66z"/>
<path d="M12430 2910 l0 -100 66 0 c59 0 68 3 95 29 31 32 39 84 18 123 -15
28 -69 48 -129 48 l-50 0 0 -100z"/>
<path d="M4624 2884 c-51 -114 -53 -104 26 -104 39 0 70 2 70 4 0 6 -62 150
-66 155 -2 2 -16 -22 -30 -55z"/>
</g>
</svg>
